{
  "accessors": [
    {
      "bufferView": 2,
      "componentType": 5126,
      "count": 65533,
      "max": [
        23.849695205688477,
        59.78436279296875,
        20.438823699951172
      ],
      "min": [
        -22.42899513244629,
        -40.078575134277344,
        -22.02199935913086
      ],
      "type": "VEC3"
    },
    {
      "bufferView": 2,
      "byteOffset": 786396,
      "componentType": 5126,
      "count": 65533,
      "max": [
        0.9999894499778748,
        0.9999997615814209,
        0.9999996423721313
      ],
      "min": [
        -0.9999818801879883,
        -1.0,
        -0.9999998807907104
      ],
      "type": "VEC3"
    },
    {
      "bufferView": 3,
      "componentType": 5126,
      "count": 65533,
      "max": [
        0.9999818205833435,
        0.9999769330024719,
        0.9999913573265076,
        -1.0
      ],
      "min": [
        -0.9999794960021973,
        -0.9999528527259827,
        -0.999985933303833,
        -1.0
      ],
      "type": "VEC4"
    },
    {
      "bufferView": 1,
      "componentType": 5126,
      "count": 65533,
      "max": [
        0.9980400204658508,
        0.99795001745224
      ],
      "min": [
        0.00546000013127923,
        0.00195997953414917
      ],
      "type": "VEC2"
    },
    {
      "bufferView": 1,
      "byteOffset": 524264,
      "componentType": 5126,
      "count": 65533,
      "max": [
        0.9980400204658508,
        0.99795001745224
      ],
      "min": [
        0.00546000013127923,
        0.00195997953414917
      ],
      "type": "VEC2"
    },
    {
      "bufferView": 1,
      "byteOffset": 1048528,
      "componentType": 5126,
      "count": 65533,
      "max": [
        0.9980400204658508,
        0.99795001745224
      ],
      "min": [
        0.00546000013127923,
        0.00195997953414917
      ],
      "type": "VEC2"
    },
    {
      "bufferView": 0,
      "componentType": 5125,
      "count": 254286,
      "type": "SCALAR"
    },
    {
      "bufferView": 2,
      "byteOffset": 1572792,
      "componentType": 5126,
      "count": 28276,
      "max": [
        23.65786361694336,
        59.85627365112305,
        20.413257598876953
      ],
      "min": [
        -22.40917205810547,
        -40.08220672607422,
        -21.987871170043945
      ],
      "type": "VEC3"
    },
    {
      "bufferView": 2,
      "byteOffset": 1912104,
      "componentType": 5126,
      "count": 28276,
      "max": [
        0.9999556541442871,
        0.9999926686286926,
        0.999995231628418
      ],
      "min": [
        -0.9999733567237854,
        -0.999987781047821,
        -0.9999897480010986
      ],
      "type": "VEC3"
    },
    {
      "bufferView": 3,
      "byteOffset": 1048528,
      "componentType": 5126,
      "count": 28276,
      "max": [
        0.9999411702156067,
        0.9999427199363708,
        0.9999964833259583,
        1.0
      ],
      "min": [
        -0.9994569420814514,
        -0.9999247789382935,
        -0.9999953508377075,
        -1.0
      ],
      "type": "VEC4"
    },
    {
      "bufferView": 1,
      "byteOffset": 1572792,
      "componentType": 5126,
      "count": 28276,
      "max": [
        0.9980400204658508,
        0.9980499744415283
      ],
      "min": [
        0.007459999993443489,
        0.00195997953414917
      ],
      "type": "VEC2"
    },
    {
      "bufferView": 1,
      "byteOffset": 1799000,
      "componentType": 5126,
      "count": 28276,
      "max": [
        0.9980400204658508,
        0.9980499744415283
      ],
      "min": [
        0.007459999993443489,
        0.00195997953414917
      ],
      "type": "VEC2"
    },
    {
      "bufferView": 1,
      "byteOffset": 2025208,
      "componentType": 5126,
      "count": 28276,
      "max": [
        0.9980400204658508,
        0.9980499744415283
      ],
      "min": [
        0.007459999993443489,
        0.00195997953414917
      ],
      "type": "VEC2"
    },
    {
      "bufferView": 0,
      "byteOffset": 1017144,
      "componentType": 5125,
      "count": 46140,
      "type": "SCALAR"
    }
  ],
  "asset": {
    "extras": {
      "author": "The Smithsonian Institution (https://sketchfab.com/Smithsonian)",
      "license": "CC0-1.0 (http://creativecommons.org/publicdomain/zero/1.0/)",
      "source": "https://sketchfab.com/3d-models/side-chair-9c7f1f712edc4b3196e8dcca39a9a537",
      "title": "Side Chair"
    },
    "generator": "Sketchfab-12.66.0",
    "version": "2.0"
  },
  "bufferViews": [
    {
      "buffer": 0,
      "byteLength": 1201704,
      "name": "floatBufferViews",
      "target": 34963
    },
    {
      "buffer": 0,
      "byteLength": 2251416,
      "byteOffset": 1201704,
      "byteStride": 8,
      "name": "floatBufferViews",
      "target": 34962
    },
    {
      "buffer": 0,
      "byteLength": 2251416,
      "byteOffset": 3453120,
      "byteStride": 12,
      "name": "floatBufferViews",
      "target": 34962
    },
    {
      "buffer": 0,
      "byteLength": 1500944,
      "byteOffset": 5704536,
      "byteStride": 16,
      "name": "floatBufferViews",
      "target": 34962
    }
  ],
  "buffers": [
    {
      "byteLength": 7205480,
      "uri": "chair.bin"
    }
  ],
  "images": [
    {
      "uri": "textures/default_baseColor.jpeg"
    },
    {
      "uri": "textures/default_metallicRoughness.png"
    },
    {
      "uri": "textures/default_normal.jpeg"
    }
  ],
  "materials": [
    {
      "name": "default",
      "normalTexture": {
        "index": 2,
        "texCoord": 2
      },
      "occlusionTexture": {
        "index": 1,
        "texCoord": 1
      },
      "pbrMetallicRoughness": {
        "baseColorTexture": {
          "index": 0
        },
        "metallicFactor": 0.1,
        "metallicRoughnessTexture": {
          "index": 1,
          "texCoord": 1
        },
        "roughnessFactor": 0.8
      }
    }
  ],
  "meshes": [
    {
      "name": "Object_0",
      "primitives": [
        {
          "attributes": {
            "NORMAL": 1,
            "POSITION": 0,
            "TANGENT": 2,
            "TEXCOORD_0": 3,
            "TEXCOORD_1": 4,
            "TEXCOORD_2": 5
          },
          "indices": 6,
          "material": 0,
          "mode": 4
        }
      ]
    },
    {
      "name": "Object_1",
      "primitives": [
        {
          "attributes": {
            "NORMAL": 8,
            "POSITION": 7,
            "TANGENT": 9,
            "TEXCOORD_0": 10,
            "TEXCOORD_1": 11,
            "TEXCOORD_2": 12
          },
          "indices": 13,
          "material": 0,
          "mode": 4
        }
      ]
    }
  ],
  "nodes": [
    {
      "children": [
        1
      ],
      "matrix": [
        0.01370877493172884,
        0.0,
        0.0,
        0.0,
        0.0,
        3.0439595137219033e-18,
        -0.01370877493172884,
        0.0,
        0.0,
        0.01370877493172884,
        3.0439595137219033e-18,
        0.0,
        0.0,
        0.0,
        0.0,
        1.0
      ],
      "name": "Sketchfab_model"
    },
    {
      "children": [
        2
      ],
      "name": "root"
    },
    {
      "children": [
        3
      ],
      "matrix": [
        1.0,
        0.0,
        0.0,
        0.0,
        0.0,
        2.220446049250313e-16,
        1.0,
        0.0,
        0.0,
        -1.0,
        2.220446049250313e-16,
        0.0,
        0.0,
        0.0,
        0.0,
        1.0
      ],
      "name": "GLTF_SceneRootNode"
    },
    {
      "children": [
        4,
        5
      ],
      "name": "_0"
    },
    {
      "mesh": 0,
      "name": "Object_4"
    },
    {
      "mesh": 1,
      "name": "Object_5"
    }
  ],
  "samplers": [
    {
      "magFilter": 9729,
      "minFilter": 9987,
      "wrapS": 10497,
      "wrapT": 10497
    }
  ],
  "scene": 0,
  "scenes": [
    {
      "name": "Sketchfab_Scene",
      "nodes": [
        0
      ]
    }
  ],
  "textures": [
    {
      "sampler": 0,
      "source": 0
    },
    {
      "sampler": 0,
      "source": 1
    },
    {
      "sampler": 0,
      "source": 2
    }
  ]
}
